<?xml version="1.0" encoding="UTF-8" standalone="no"?>
<svg xmlns="http://www.w3.org/2000/svg" width="600" height="300" viewBox="0 0 600 300">
  <g fill="#2754EB">
    <!-- Robot face shield -->
    <path d="M247,175 C247,140 190,140 190,175 L190,225 C190,260 247,260 247,225 L247,175 Z" />
    
    <!-- Robot eyes -->
    <circle cx="207" cy="200" r="15" fill="white" />
    <circle cx="230" cy="200" r="15" fill="white" />
    
    <!-- F -->
    <path d="M280,170 L280,250 L300,250 L300,220 L340,220 L340,200 L300,200 L300,190 L350,190 L350,170 L280,170 Z" />
    
    <!-- i -->
    <circle cx="365" cy="175" r="10" />
    <rect x="355" y="190" width="20" height="60" />
    
    <!-- L -->
    <path d="M385,170 L385,250 L450,250 L450,230 L405,230 L405,170 L385,170 Z" />
    
    <!-- o -->
    <circle cx="480" cy="210" r="40" stroke-width="20" fill="white" />
    
    <!-- t -->
    <rect x="520" y="170" width="60" height="20" />
    <rect x="540" y="170" width="20" height="80" />
    
    <!-- Precision Investing text -->
    <path d="M230,280 L230,300 L290,300 L290,280 L230,280 Z M310,280 L310,300 L470,300 L470,280 L310,280 Z" opacity="0" />
  </g>
</svg>